<?xml version="1.0" encoding="UTF-8"?>
<svg id="Layer_1" xmlns="http://www.w3.org/2000/svg" xmlns:xlink="http://www.w3.org/1999/xlink" version="1.1" viewBox="0 0 122 58">
  <!-- Generator: Adobe Illustrator 30.0.0, SVG Export Plug-In . SVG Version: 2.1.1 Build 123)  -->
  <defs>
    <style>
      .st0 {
        fill: none;
      }

      .st1 {
        fill: #050000;
      }

      .st2 {
        clip-path: url(#clippath);
      }
    </style>
    <clipPath id="clippath">
      <rect class="st0" width="122" height="58"/>
    </clipPath>
  </defs>
  <g class="st2">
    <g>
      <path class="st1" d="M59.46,0c6.12.16,11.18,3.63,11.78,10.03.4.94,1.27,1.15,2.6.64,4.04-2.05,7.79-2.3,11.26-.74,1.44,1.71,2.71,1.9,3.82.58C93.84,4.69,98.14.4,106.36.38c8.44-.02,14.9,6.49,15.58,14.81-.12,1.35.17,2.94,0,4.25-.16,9.29-12.86,23.3-22.23,16.11-1.31-1.62-2.74-3.03-4.29-4.24-.89,12.02-3,28.06-18.93,26.52-5.62.32-11.43-4.45-10.79-10.35.71-6.56,5.18-7.2,10.66-7.44,11.09-3,1.62-18.35-5.21-7.57-2.53,6.38-5.21,12.23-12.26,14.8-9.92,3.62-23.18-3.7-21.44-14.99-.07-5.63-2.26-4.05-5.14-1.11-3.76,4.68-7.5,8.34-13.44,10.12C8.5,44.42-.82,38.11.29,26.91c.76-7.64,8.91-9.95,12.83-3.34,3.48,11.71,14.54-1.43,12.28-8.08-1.72-2.79-2.8-5.33-.42-8.26,3.64-4.49,10.29-.27,13.49,2.7,1.24.68,1.86.47,2.65-.75C43.8,4.02,48.05-.09,54.3,0h5.16ZM102.45,12.52c-3.15.65-3.69,5.47-2.6,7.93,2.16,4.87,13.52,1.94,9.9-4.75-1.21-2.24-4.83-3.69-7.3-3.18h0ZM51.06,30.27c2.81,2.49,6.34-1.99,7.55-4.25,1.2-2.26,3.15-7.95.66-9.58-3.49-2.29-7.76,2.68-8.75,5.74-.61,1.88-1.02,6.71.54,8.1h0Z"/>
      <path class="st1" d="M32.99.38c2.04-.31,5.16-.28,6.96.77,3.63,2.12,2.6,6.38-1.86,5.81-.89-.12-6.12-2.75-6.95-3.36-2.15-1.58.03-2.93,1.85-3.21Z"/>
      <path class="st1" d="M76.9,1.69c1.66-.02,5.88.75,6.08,2.83.28,2.93-11.05,6.07-11.4,1.09-.21-2.96,2.88-3.89,5.33-3.92h0Z"/>
    </g>
  </g>
</svg>